<?xml version="1.0" encoding="UTF-8" standalone="no"?><!DOCTYPE svg PUBLIC "-//W3C//DTD SVG 1.1//EN" "http://www.w3.org/Graphics/SVG/1.1/DTD/svg11.dtd"><svg width="100%" height="100%" viewBox="0 0 695 695" version="1.1" xmlns="http://www.w3.org/2000/svg" xmlns:xlink="http://www.w3.org/1999/xlink" xml:space="preserve" xmlns:serif="http://www.serif.com/" style="fill-rule:evenodd;clip-rule:evenodd;stroke-linejoin:round;stroke-miterlimit:2;"><rect id="Artboard1" x="0" y="0" width="694.444" height="694.444" style="fill:none;"/><g id="Artboard11" serif:id="Artboard1"><g><path d="M306.832,144.71c6.462,-0.62 13.013,-0.938 19.638,-0.938c112.287,0 203.45,91.163 203.45,203.45c0,112.287 -91.163,203.45 -203.45,203.45c-91.21,-0 -168.483,-60.152 -194.28,-142.926c103.089,-9.893 183.812,-96.85 183.812,-202.512c-0,-21.076 -3.212,-41.408 -9.17,-60.524Z" style="fill:#fff;"/><g><g><path d="M326.47,27.776c-5.332,-0 -9.654,4.321 -9.654,9.654l-0,51.629c-0,5.334 4.322,9.655 9.654,9.655c5.332,-0 9.655,-4.321 9.655,-9.655l-0,-51.629c-0,-5.333 -4.323,-9.654 -9.655,-9.654Z" style="fill:#fff;fill-rule:nonzero;"/></g><g><path d="M111.256,471.475c-2.665,-4.617 -8.569,-6.197 -13.188,-3.534l-44.711,25.815c-4.617,2.666 -6.2,8.57 -3.534,13.189c1.788,3.097 5.032,4.827 8.369,4.827c1.637,0 3.298,-0.416 4.818,-1.295l44.712,-25.814c4.619,-2.666 6.201,-8.57 3.534,-13.188Z" style="fill:#fff;fill-rule:nonzero;"/></g><g><path d="M202.217,562.436c-4.617,-2.664 -10.522,-1.086 -13.188,3.534l-25.814,44.712c-2.666,4.617 -1.085,10.522 3.534,13.187c1.52,0.879 3.18,1.295 4.818,1.295c3.336,0 6.581,-1.73 8.369,-4.827l25.814,-44.713c2.666,-4.618 1.084,-10.523 -3.533,-13.188Z" style="fill:#fff;fill-rule:nonzero;"/></g><g><path d="M326.47,595.731c-5.332,-0 -9.654,4.321 -9.654,9.654l-0,51.629c-0,5.333 4.322,9.655 9.654,9.655c5.332,-0 9.655,-4.322 9.655,-9.655l-0,-51.629c-0,-5.333 -4.323,-9.654 -9.655,-9.654Z" style="fill:#fff;fill-rule:nonzero;"/></g><g><path d="M489.726,610.682l-25.814,-44.712c-2.665,-4.619 -8.57,-6.197 -13.188,-3.534c-4.617,2.665 -6.2,8.57 -3.534,13.187l25.814,44.712c1.788,3.097 5.033,4.828 8.369,4.828c1.637,0 3.298,-0.417 4.818,-1.295c4.619,-2.664 6.202,-8.569 3.535,-13.186Z" style="fill:#fff;fill-rule:nonzero;"/></g><g><path d="M599.584,493.756l-44.712,-25.814c-4.617,-2.664 -10.522,-1.085 -13.189,3.534c-2.665,4.617 -1.084,10.522 3.534,13.188l44.713,25.814c1.52,0.879 3.18,1.296 4.818,1.296c3.336,-0 6.581,-1.731 8.369,-4.828c2.668,-4.62 1.085,-10.524 -3.533,-13.19Z" style="fill:#fff;fill-rule:nonzero;"/></g><g><path d="M636.262,337.567l-51.631,0c-5.332,0 -9.654,4.321 -9.654,9.655c-0,5.333 4.322,9.654 9.654,9.654l51.631,0c5.332,0 9.654,-4.321 9.654,-9.654c0,-5.334 -4.322,-9.655 -9.654,-9.655Z" style="fill:#fff;fill-rule:nonzero;"/></g><g><path d="M603.118,187.499c-2.665,-4.619 -8.57,-6.197 -13.187,-3.534l-44.713,25.814c-4.617,2.665 -6.199,8.57 -3.533,13.188c1.788,3.097 5.032,4.828 8.369,4.828c1.637,0 3.298,-0.417 4.818,-1.295l44.712,-25.814c4.618,-2.664 6.199,-8.569 3.534,-13.187Z" style="fill:#fff;fill-rule:nonzero;"/></g><g><path d="M486.193,70.575c-4.617,-2.664 -10.521,-1.085 -13.188,3.534l-25.814,44.711c-2.665,4.616 -1.084,10.521 3.534,13.189c1.52,0.877 3.181,1.295 4.818,1.295c3.336,-0 6.581,-1.731 8.369,-4.828l25.814,-44.711c2.667,-4.62 1.084,-10.524 -3.533,-13.19Z" style="fill:#fff;fill-rule:nonzero;"/></g></g></g></g></svg>