<?xml version="1.0" encoding="UTF-8" standalone="no"?><!DOCTYPE svg PUBLIC "-//W3C//DTD SVG 1.1//EN" "http://www.w3.org/Graphics/SVG/1.1/DTD/svg11.dtd"><svg width="100%" height="100%" viewBox="0 0 695 695" version="1.1" xmlns="http://www.w3.org/2000/svg" xmlns:xlink="http://www.w3.org/1999/xlink" xml:space="preserve" xmlns:serif="http://www.serif.com/" style="fill-rule:evenodd;clip-rule:evenodd;stroke-linejoin:round;stroke-miterlimit:2;"><rect id="Artboard1" x="0" y="0" width="694.444" height="694.444" style="fill:none;"/><g id="Artboard11" serif:id="Artboard1"><g><circle cx="347.222" cy="347.222" r="223.97" style="fill:#fff;"/><g><path d="M431.938,243.398c-3.686,0 -6.673,-2.988 -6.673,-6.673c-0,-3.685 2.987,-6.673 6.673,-6.673c3.685,0 6.673,2.988 6.673,6.673c-0,3.685 -2.988,6.673 -6.673,6.673Z" style="fill:#5c508d;fill-rule:nonzero;"/></g><g><path d="M415.603,480.213c-3.685,0 -6.672,-2.987 -6.672,-6.672c-0,-3.686 2.987,-6.673 6.672,-6.673c3.686,-0 6.673,2.987 6.673,6.673c0,3.685 -2.986,6.672 -6.673,6.672Z" style="fill:#5c508d;fill-rule:nonzero;"/></g><g><path d="M363.402,380.969c-3.685,-0 -6.673,-2.988 -6.673,-6.673c0,-3.685 2.988,-6.673 6.673,-6.673c3.686,0 6.673,2.988 6.673,6.673c0,3.685 -2.987,6.673 -6.673,6.673Z" style="fill:#5c508d;fill-rule:nonzero;"/></g><g><path d="M201.767,387.642c-3.685,-0 -6.673,-2.988 -6.673,-6.673c-0,-3.685 2.988,-6.673 6.673,-6.673c3.685,-0 6.673,2.988 6.673,6.673c-0,3.685 -2.988,6.673 -6.673,6.673Z" style="fill:#5c508d;fill-rule:nonzero;"/></g><g><path d="M458.487,414.191c-18.893,-0 -34.263,-15.37 -34.263,-34.263c-0,-18.892 15.37,-34.263 34.263,-34.263c18.892,0 34.262,15.37 34.262,34.263c-0,18.893 -15.37,34.263 -34.262,34.263Zm-0,-55.18c-11.534,-0 -20.917,9.383 -20.917,20.917c-0,11.533 9.383,20.917 20.917,20.917c11.533,-0 20.917,-9.384 20.917,-20.917c-0.001,-11.534 -9.384,-20.917 -20.917,-20.917Z" style="fill:#5c508d;fill-rule:nonzero;"/></g><g><path d="M286.877,486.886c-14.639,0 -26.548,-11.909 -26.548,-26.549c0,-14.639 11.91,-26.548 26.548,-26.548c14.639,0 26.549,11.91 26.549,26.548c0,14.639 -11.909,26.549 -26.549,26.549Zm0,-39.752c-7.28,-0 -13.202,5.923 -13.202,13.202c-0,7.281 5.923,13.204 13.202,13.204c7.281,-0 13.204,-5.923 13.204,-13.204c-0,-7.279 -5.923,-13.202 -13.204,-13.202Z" style="fill:#5c508d;fill-rule:nonzero;"/></g><g><path d="M271.471,312.738c-22.421,-0 -42.246,-14.283 -49.33,-35.542c-1.165,-3.496 0.724,-7.275 4.221,-8.439c3.495,-1.167 7.275,0.724 8.44,4.22c5.265,15.8 20.001,26.415 36.669,26.415c21.307,0 38.641,-17.334 38.641,-38.641c0,-21.307 -17.334,-38.641 -38.641,-38.641c-16.492,-0 -31.178,10.468 -36.545,26.049c-1.201,3.485 -4.998,5.335 -8.482,4.135c-3.484,-1.2 -5.336,-4.998 -4.136,-8.482c7.221,-20.964 26.979,-35.049 49.163,-35.049c28.666,0 51.987,23.321 51.987,51.987c0.001,28.667 -23.32,51.988 -51.987,51.988Z" style="fill:#5c508d;fill-rule:nonzero;"/></g></g></g></svg>