<?xml version="1.0" encoding="UTF-8" standalone="no"?><!DOCTYPE svg PUBLIC "-//W3C//DTD SVG 1.1//EN" "http://www.w3.org/Graphics/SVG/1.1/DTD/svg11.dtd"><svg width="100%" height="100%" viewBox="0 0 695 695" version="1.1" xmlns="http://www.w3.org/2000/svg" xmlns:xlink="http://www.w3.org/1999/xlink" xml:space="preserve" xmlns:serif="http://www.serif.com/" style="fill-rule:evenodd;clip-rule:evenodd;stroke-linejoin:round;stroke-miterlimit:2;"><rect id="Artboard1" x="0" y="0" width="694.444" height="694.444" style="fill:none;"/><g id="Artboard11" serif:id="Artboard1"><g><g><path d="M434.505,241.931c-3.765,0 -6.816,-3.051 -6.816,-6.815c-0,-3.764 3.051,-6.816 6.816,-6.816c3.764,0 6.815,3.052 6.815,6.816c0,3.764 -3.051,6.815 -6.815,6.815Z" style="fill:#fff;fill-rule:nonzero;"/></g><g><path d="M417.821,483.813c-3.764,0 -6.816,-3.052 -6.816,-6.816c0,-3.764 3.052,-6.815 6.816,-6.815c3.764,-0 6.815,3.051 6.815,6.815c0,3.764 -3.05,6.816 -6.815,6.816Z" style="fill:#fff;fill-rule:nonzero;"/></g><g><path d="M364.503,382.445c-3.764,0 -6.816,-3.051 -6.816,-6.815c0,-3.764 3.052,-6.816 6.816,-6.816c3.764,0 6.816,3.052 6.816,6.816c-0,3.764 -3.052,6.815 -6.816,6.815Z" style="fill:#fff;fill-rule:nonzero;"/></g><g><path d="M199.409,389.261c-3.764,-0 -6.815,-3.052 -6.815,-6.816c-0,-3.764 3.051,-6.815 6.815,-6.815c3.764,-0 6.816,3.051 6.816,6.815c-0,3.764 -3.052,6.816 -6.816,6.816Z" style="fill:#fff;fill-rule:nonzero;"/></g><g><path d="M461.621,416.378c-19.297,-0 -34.995,-15.699 -34.995,-34.996c-0,-19.296 15.698,-34.996 34.995,-34.996c19.297,0 34.996,15.699 34.996,34.996c-0.001,19.297 -15.699,34.996 -34.996,34.996Zm0,-56.361c-11.78,0 -21.364,9.584 -21.364,21.365c-0,11.78 9.584,21.365 21.364,21.365c11.781,-0 21.365,-9.585 21.365,-21.365c-0.001,-11.78 -9.584,-21.365 -21.365,-21.365Z" style="fill:#fff;fill-rule:nonzero;"/></g><g><path d="M286.341,490.629c-14.953,-0 -27.116,-12.165 -27.116,-27.117c-0,-14.953 12.164,-27.116 27.116,-27.116c14.951,-0 27.117,12.164 27.117,27.116c-0,14.951 -12.165,27.117 -27.117,27.117Zm-0,-40.603c-7.436,-0 -13.485,6.049 -13.485,13.485c-0,7.436 6.049,13.486 13.485,13.486c7.436,-0 13.486,-6.05 13.486,-13.486c-0,-7.436 -6.05,-13.485 -13.486,-13.485Z" style="fill:#fff;fill-rule:nonzero;"/></g><g><path d="M174.097,499.038c-1.946,0 -3.878,-0.829 -5.226,-2.437c-35.009,-41.754 -54.288,-94.805 -54.288,-149.379c0,-62.14 24.199,-120.56 68.138,-164.5c43.94,-43.941 102.361,-68.139 164.501,-68.139c53.916,0 106.471,18.868 147.983,53.126c2.904,2.396 3.314,6.692 0.919,9.595c-2.397,2.903 -6.692,3.314 -9.596,0.919c-39.076,-32.249 -88.549,-50.008 -139.306,-50.008c-58.499,-0 -113.497,22.78 -154.862,64.145c-41.365,41.365 -64.145,96.364 -64.145,154.862c-0,51.377 18.148,101.317 51.101,140.621c2.419,2.885 2.041,7.183 -0.844,9.601c-1.277,1.072 -2.83,1.594 -4.375,1.594Z" style="fill:#fff;fill-rule:nonzero;"/></g><g><path d="M347.222,579.861c-58.256,0 -113.997,-21.636 -156.956,-60.923c-2.778,-2.54 -2.97,-6.852 -0.429,-9.629c2.54,-2.779 6.852,-2.97 9.629,-0.43c40.439,36.983 92.913,57.351 147.756,57.351c58.499,-0 113.497,-22.781 154.862,-64.146c41.365,-41.365 64.146,-96.362 64.146,-154.862c-0,-55.533 -20.819,-108.497 -58.62,-149.132c-2.563,-2.756 -2.408,-7.068 0.348,-9.633c2.758,-2.563 7.07,-2.407 9.633,0.348c40.156,43.167 62.27,99.427 62.27,158.417c0,62.14 -24.198,120.562 -68.139,164.501c-43.939,43.939 -102.36,68.138 -164.5,68.138Z" style="fill:#fff;fill-rule:nonzero;"/></g><g><path d="M270.605,312.754c-22.901,0 -43.15,-14.588 -50.385,-36.301c-1.191,-3.572 0.739,-7.431 4.311,-8.621c3.569,-1.191 7.43,0.74 8.62,4.311c5.378,16.138 20.43,26.98 37.454,26.98c21.763,0 39.468,-17.705 39.468,-39.468c-0,-21.762 -17.705,-39.467 -39.468,-39.467c-16.845,-0 -31.845,10.692 -37.327,26.606c-1.227,3.56 -5.105,5.449 -8.664,4.224c-3.558,-1.226 -5.449,-5.105 -4.224,-8.664c7.376,-21.412 27.556,-35.798 50.215,-35.798c29.279,-0 53.099,23.82 53.099,53.099c0.001,29.279 -23.819,53.099 -53.099,53.099Z" style="fill:#fff;fill-rule:nonzero;"/></g></g></g></svg>