<?xml version="1.0" encoding="UTF-8" standalone="no"?><!DOCTYPE svg PUBLIC "-//W3C//DTD SVG 1.1//EN" "http://www.w3.org/Graphics/SVG/1.1/DTD/svg11.dtd"><svg width="100%" height="100%" viewBox="0 0 695 695" version="1.1" xmlns="http://www.w3.org/2000/svg" xmlns:xlink="http://www.w3.org/1999/xlink" xml:space="preserve" xmlns:serif="http://www.serif.com/" style="fill-rule:evenodd;clip-rule:evenodd;stroke-linecap:round;stroke-linejoin:round;stroke-miterlimit:1.5;"><rect id="Artboard1" x="0" y="0" width="694.444" height="694.444" style="fill:none;"/><g id="Artboard11" serif:id="Artboard1"><g><circle cx="347.222" cy="347.222" r="200.139" style="fill:none;stroke:#fff;stroke-width:8.33px;"/><g><g><path d="M347.222,32.974c-5.245,0 -9.497,4.251 -9.497,9.498l-0,50.789c-0,5.246 4.252,9.497 9.497,9.497c5.245,0 9.498,-4.251 9.498,-9.497l-0,-50.789c-0,-5.247 -4.253,-9.498 -9.498,-9.498Z" style="fill:#fff;fill-rule:nonzero;"/></g><g><path d="M228.466,122.537l-25.394,-43.983c-2.622,-4.543 -8.429,-6.096 -12.973,-3.477c-4.542,2.622 -6.099,8.431 -3.477,12.974l25.394,43.984c1.759,3.046 4.952,4.749 8.233,4.749c1.611,-0 3.244,-0.41 4.74,-1.274c4.544,-2.622 6.1,-8.431 3.477,-12.973Z" style="fill:#fff;fill-rule:nonzero;"/></g><g><path d="M132.034,212.017l-43.985,-25.394c-4.542,-2.621 -10.35,-1.068 -12.974,3.476c-2.622,4.542 -1.066,10.351 3.477,12.974l43.985,25.394c1.495,0.863 3.129,1.274 4.739,1.274c3.282,-0 6.474,-1.703 8.233,-4.749c2.626,-4.545 1.068,-10.352 -3.475,-12.975Z" style="fill:#fff;fill-rule:nonzero;"/></g><g><path d="M93.261,337.724l-50.789,0c-5.245,0 -9.497,4.251 -9.497,9.498c-0,5.246 4.252,9.497 9.497,9.497l50.79,-0c5.246,-0 9.498,-4.251 9.498,-9.497c-0,-5.247 -4.254,-9.498 -9.499,-9.498Z" style="fill:#fff;fill-rule:nonzero;"/></g><g><path d="M135.51,469.453c-2.622,-4.542 -8.429,-6.096 -12.973,-3.477l-43.984,25.396c-4.542,2.622 -6.098,8.43 -3.476,12.973c1.759,3.047 4.95,4.75 8.233,4.75c1.61,-0 3.244,-0.41 4.739,-1.275l43.985,-25.393c4.543,-2.624 6.1,-8.431 3.476,-12.974Z" style="fill:#fff;fill-rule:nonzero;"/></g><g><path d="M224.991,558.933c-4.542,-2.62 -10.35,-1.067 -12.974,3.477l-25.394,43.985c-2.622,4.542 -1.066,10.35 3.477,12.972c1.495,0.864 3.129,1.274 4.739,1.274c3.283,0 6.474,-1.702 8.233,-4.749l25.394,-43.985c2.623,-4.543 1.067,-10.352 -3.475,-12.974Z" style="fill:#fff;fill-rule:nonzero;"/></g><g><path d="M347.222,591.686c-5.245,0 -9.497,4.251 -9.497,9.498l-0,50.789c-0,5.246 4.252,9.497 9.497,9.497c5.245,0 9.498,-4.251 9.498,-9.497l-0,-50.789c-0,-5.247 -4.253,-9.498 -9.498,-9.498Z" style="fill:#fff;fill-rule:nonzero;"/></g><g><path d="M507.821,606.395l-25.394,-43.985c-2.622,-4.543 -8.431,-6.096 -12.974,-3.477c-4.541,2.622 -6.098,8.431 -3.476,12.973l25.394,43.985c1.759,3.047 4.952,4.749 8.233,4.749c1.61,0 3.244,-0.41 4.739,-1.274c4.545,-2.621 6.101,-8.429 3.478,-12.971Z" style="fill:#fff;fill-rule:nonzero;"/></g><g><path d="M615.891,491.372l-43.984,-25.394c-4.542,-2.621 -10.351,-1.068 -12.974,3.476c-2.622,4.542 -1.067,10.351 3.476,12.974l43.985,25.394c1.495,0.864 3.129,1.274 4.74,1.274c3.282,-0 6.474,-1.703 8.233,-4.749c2.624,-4.545 1.068,-10.353 -3.476,-12.975Z" style="fill:#fff;fill-rule:nonzero;"/></g><g><path d="M651.972,337.724l-50.79,0c-5.245,0 -9.497,4.251 -9.497,9.498c-0,5.246 4.252,9.497 9.497,9.497l50.79,-0c5.245,-0 9.498,-4.251 9.498,-9.497c-0,-5.247 -4.253,-9.498 -9.498,-9.498Z" style="fill:#fff;fill-rule:nonzero;"/></g><g><path d="M619.368,190.098c-2.622,-4.543 -8.431,-6.096 -12.973,-3.476l-43.985,25.393c-4.541,2.622 -6.098,8.431 -3.476,12.974c1.759,3.047 4.951,4.75 8.233,4.75c1.611,-0 3.244,-0.41 4.74,-1.275l43.984,-25.394c4.544,-2.62 6.099,-8.429 3.477,-12.972Z" style="fill:#fff;fill-rule:nonzero;"/></g><g><path d="M504.346,75.077c-4.542,-2.621 -10.351,-1.068 -12.974,3.477l-25.394,43.983c-2.622,4.541 -1.066,10.349 3.477,12.974c1.495,0.863 3.129,1.274 4.739,1.274c3.283,0 6.474,-1.702 8.233,-4.749l25.394,-43.984c2.623,-4.544 1.067,-10.353 -3.475,-12.975Z" style="fill:#fff;fill-rule:nonzero;"/></g></g></g></g></svg>