<?xml version="1.0" encoding="UTF-8" standalone="no"?><!DOCTYPE svg PUBLIC "-//W3C//DTD SVG 1.1//EN" "http://www.w3.org/Graphics/SVG/1.1/DTD/svg11.dtd"><svg width="100%" height="100%" viewBox="0 0 695 695" version="1.1" xmlns="http://www.w3.org/2000/svg" xmlns:xlink="http://www.w3.org/1999/xlink" xml:space="preserve" xmlns:serif="http://www.serif.com/" style="fill-rule:evenodd;clip-rule:evenodd;stroke-linejoin:round;stroke-miterlimit:2;"><rect id="Artboard1" x="0" y="0" width="694.444" height="694.444" style="fill:none;"/><g id="Artboard11" serif:id="Artboard1"><g><circle cx="347.222" cy="347.222" r="216.718" style="fill:#fff;"/><g><g><path d="M347.222,6.942c-5.68,0 -10.284,4.603 -10.284,10.285l0,54.996c0,5.681 4.604,10.284 10.284,10.284c5.68,-0 10.284,-4.603 10.284,-10.284l0,-54.996c0,-5.682 -4.604,-10.285 -10.284,-10.285Z" style="fill:#fff;fill-rule:nonzero;"/></g><g><path d="M218.629,103.925l-27.498,-47.628c-2.839,-4.919 -9.128,-6.6 -14.048,-3.764c-4.918,2.839 -6.604,9.129 -3.765,14.049l27.498,47.627c1.905,3.299 5.362,5.142 8.915,5.142c1.744,0 3.513,-0.443 5.132,-1.379c4.921,-2.839 6.606,-9.129 3.766,-14.047Z" style="fill:#fff;fill-rule:nonzero;"/></g><g><path d="M114.208,200.816l-47.628,-27.497c-4.918,-2.838 -11.208,-1.156 -14.049,3.764c-2.839,4.918 -1.155,11.208 3.764,14.049l47.629,27.497c1.619,0.935 3.388,1.38 5.132,1.38c3.554,-0 7.01,-1.844 8.915,-5.143c2.843,-4.921 1.156,-11.209 -3.763,-14.05Z" style="fill:#fff;fill-rule:nonzero;"/></g><g><path d="M72.223,336.937l-54.996,0c-5.68,0 -10.284,4.603 -10.284,10.285c0,5.681 4.604,10.284 10.284,10.284l54.998,-0c5.68,-0 10.284,-4.603 10.284,-10.284c-0,-5.682 -4.606,-10.285 -10.286,-10.285Z" style="fill:#fff;fill-rule:nonzero;"/></g><g><path d="M117.972,479.578c-2.839,-4.918 -9.127,-6.601 -14.048,-3.764l-47.627,27.499c-4.918,2.839 -6.604,9.129 -3.765,14.048c1.905,3.299 5.361,5.143 8.916,5.143c1.743,-0 3.513,-0.444 5.132,-1.38l47.628,-27.497c4.919,-2.841 6.605,-9.129 3.764,-14.049Z" style="fill:#fff;fill-rule:nonzero;"/></g><g><path d="M214.866,576.471c-4.919,-2.838 -11.208,-1.156 -14.049,3.765l-27.497,47.628c-2.84,4.918 -1.155,11.208 3.764,14.047c1.619,0.936 3.388,1.38 5.132,1.38c3.554,0 7.01,-1.844 8.915,-5.143l27.498,-47.628c2.84,-4.92 1.155,-11.209 -3.763,-14.049Z" style="fill:#fff;fill-rule:nonzero;"/></g><g><path d="M347.222,611.938c-5.68,-0 -10.284,4.603 -10.284,10.284l0,54.996c0,5.681 4.604,10.284 10.284,10.284c5.68,0 10.284,-4.603 10.284,-10.284l0,-54.996c0,-5.681 -4.604,-10.284 -10.284,-10.284Z" style="fill:#fff;fill-rule:nonzero;"/></g><g><path d="M521.125,627.864l-27.498,-47.628c-2.839,-4.92 -9.129,-6.601 -14.048,-3.765c-4.918,2.84 -6.604,9.129 -3.764,14.048l27.497,47.628c1.905,3.299 5.362,5.143 8.915,5.143c1.744,-0 3.513,-0.444 5.132,-1.38c4.921,-2.838 6.606,-9.128 3.766,-14.046Z" style="fill:#fff;fill-rule:nonzero;"/></g><g><path d="M638.148,503.313l-47.629,-27.498c-4.918,-2.838 -11.208,-1.156 -14.048,3.765c-2.839,4.918 -1.155,11.207 3.764,14.048l47.629,27.497c1.618,0.936 3.388,1.38 5.132,1.38c3.554,0 7.01,-1.843 8.915,-5.143c2.842,-4.92 1.156,-11.21 -3.763,-14.049Z" style="fill:#fff;fill-rule:nonzero;"/></g><g><path d="M677.217,336.937l-54.997,0c-5.68,0 -10.284,4.603 -10.284,10.285c-0,5.681 4.604,10.284 10.284,10.284l54.997,-0c5.68,-0 10.284,-4.603 10.284,-10.284c0,-5.682 -4.604,-10.285 -10.284,-10.285Z" style="fill:#fff;fill-rule:nonzero;"/></g><g><path d="M641.912,177.082c-2.839,-4.919 -9.129,-6.601 -14.047,-3.764l-47.629,27.497c-4.918,2.839 -6.603,9.129 -3.764,14.049c1.905,3.299 5.361,5.142 8.915,5.142c1.744,0 3.513,-0.444 5.132,-1.379l47.629,-27.498c4.919,-2.838 6.603,-9.128 3.764,-14.047Z" style="fill:#fff;fill-rule:nonzero;"/></g><g><path d="M517.362,52.533c-4.918,-2.838 -11.208,-1.156 -14.049,3.764l-27.497,47.628c-2.839,4.916 -1.155,11.206 3.764,14.048c1.619,0.935 3.388,1.38 5.132,1.38c3.555,-0 7.011,-1.844 8.915,-5.143l27.498,-47.627c2.84,-4.921 1.155,-11.211 -3.763,-14.05Z" style="fill:#fff;fill-rule:nonzero;"/></g></g></g></g></svg>